<svg height="512" viewBox="0 0 56 60" width="512" xmlns="http://www.w3.org/2000/svg"><g id="Page-1" fill="none" fill-rule="evenodd"><g id="002---Warrior-Pose" fill="rgb(0,0,0)" fill-rule="nonzero"><path id="Shape" d="m0 59c0 .5522847.44771525 1 1 1h49c.5522847 0 1-.4477153 1-1s-.4477153-1-1-1h-6.742c.771-3.332 2.906-12.534 3.712-15.757 1.1-4.391-.04-5.9-2.523-7.138-1.486-.742-4.923-1.381-8.447-1.754v-11.351h15c2.7600532-.0033061 4.9966939-2.2399468 5-5 0-.5522847-.4477153-1-1-1h-23.432c1.4913635-2.0381911 2.3383934-4.4761882 2.432-7 .0185427-1.59095677-.7976569-3.07536997-2.151-3.912.4596144-1.63069945-.1579639-3.37407742-1.5415989-4.35181988s-3.2331672-.97774246-4.6168022 0-2.0012133 2.72112043-1.5415989 4.35181988c-1.3525771.83711881-2.1679687 2.32144259-2.149 3.912.0936066 2.5238118.9406365 4.9618089 2.432 7h-23.432c-.55228475 0-1 .4477153-1 1 .00330612 2.7600532 2.23994685 4.9966939 5 5h15v11.866c-.209.663-2.08 5.653-13.539 15.9-2.38544035 2.0167306-3.21071532 5.3347551-2.048 8.234h-3.413c-.55228475 0-1 .4477153-1 1zm39.294-9.337 3.619.989c-.7 3.01-1.369 5.879-1.688 7.263-1.8129107-.4014494-3.0056913-2.1377535-2.73-3.974.127-.828.286-1.746.485-2.745.1053333-.524.21-1.035.314-1.533zm4.259-12.763c1.492.746 2.393 1.2 1.477 4.862-.365 1.461-1 4.14-1.66 6.946l-3.66-1c.693-3.187 1.253-5.431 1.26-5.46.0766677-.2994853.0105109-.6175927-.1792033-.8616786-.1897141-.2440858-.481654-.3867048-.7907967-.3863214h-13c-2.7600532-.0033061-4.9966939-2.2399468-5-5v-14.476c1.0753335-.8799307 1.7660683-2.1437674 1.926-3.524h8.148c.1599317 1.3802326.8506665 2.6440693 1.926 3.524v11.644c-1.419-.108-2.794-.168-4-.168-.5522847 0-1 .4477153-1 1s.4477153 1 1 1c5.167 0 11.883 1.06 13.553 1.9zm7.447-16.9h-15.706c-.6263207-.4989774-1.0473562-1.2107873-1.183-2h19.718c-.4253536 1.1977017-1.5580112 1.9984494-2.829 2zm-25-16c0-1.1045695.8954305-2 2-2s2 .8954305 2 2c-.0057869.08730209-.0171433.1741455-.034.26-1.2877437-.3466663-2.6442563-.3466663-3.932 0-.0168567-.0858545-.0282131-.17269791-.034-.26zm-2 5c0-2.061 2.073-3 4-3s4 .939 4 3c0 2.4-1.689 7-4 7s-4-4.6-4-7zm-19 11c-1.27098879-.0015506-2.40364643-.8022983-2.829-2h19.718c-.1351971.7893768-.5563204 1.5013351-1.183 2zm15.224 17.724c.558975 2.1824231 2.1316932 3.9638204 4.228 4.789-3.7812073 2.3127188-7.3412582 4.9689486-10.635 7.935l-2.165-2.783c3.214388-2.9881855 6.0891273-6.322038 8.572-9.941zm-12.43 13.535c.853-.762 1.651-1.5 2.4-2.2l2.113 2.716c-2.613 2.329-4.813 4.439-6 5.6-.91056619-2.1432496-.30594073-4.6300615 1.487-6.116zm20.365-8.259h10.57c-.374 1.573-1.045 4.481-1.709 7.8-.207 1.031-.371 1.979-.5 2.834-.2396584 1.562544.2036004 3.1527395 1.217 4.366h-29.195c4.073-3.923 14.284-13.384 19.617-15z"/><path id="Shape" d="m54 58c-.5522847 0-1 .4477153-1 1s.4477153 1 1 1h1c.5522847 0 1-.4477153 1-1s-.4477153-1-1-1z"/></g></g></svg>